#!OML:ASF E:\emotionWalksFemale\Project 1\Capture day 1\Session 1\Female1.ASF
:FULLY-SPECIFIED
:DEGREES
2870
root 9.80898 15.2408 -34.7655 362.263 8.07772 -1.89263
lowerback 7.34315 0.486052 -6.81558
upperback -2.73207 -0.377704 -5.2207
thorax -7.02635 -0.00665567 -1.63085
lowerneck -6.94961 1.90178 -0.835819
upperneck 42.6853 8.38216 -11.029
head 17.5175 1.95259 -3.60913
rclavicle -1.40019e-014 6.36111e-015
rhumerus -47.3225 2.41152 -82.7057
rradius 41.693
rwrist 13.7833
rhand -0.0292605 -47.8392
rfingers 7.12502
rthumb 25.5623 -436.144
lclavicle -1.40019e-014 6.36111e-015
lhumerus -40.5981 0.88029 72.9709
lradius 33.468
lwrist -16.2682
lhand -8.67085 -31.8076
lfingers 7.12502
lthumb 17.2633 -2.55441
rfemur -25.2697 23.7209 19.1396
rtibia 18.8191
rfoot -16.811 -26.7993
rtoes -7.28163
lfemur 9.76603 -22.6059 -26.5089
ltibia 17.899
lfoot -23.8976 5.91168
ltoes -34.0301
2871
root 9.79159 15.2542 -34.6732 362.573 8.5973 -1.78559
lowerback 7.03291 0.455776 -6.83811
upperback -2.73828 -0.385692 -5.22234
thorax -6.85335 -0.0122799 -1.61475
lowerneck -6.91237 1.83403 -0.8107
upperneck 42.843 8.28391 -10.9718
head 17.588 1.92498 -3.613
rclavicle -1.30949e-014 -3.18055e-015
rhumerus -47.2998 2.37482 -82.6523
rradius 41.727
rwrist 13.4733
rhand -0.0166767 -47.7359
rfingers 7.12502
rthumb 25.5744 -436.039
lclavicle -1.30949e-014 -3.18055e-015
lhumerus -40.344 0.797893 72.9836
lradius 33.4629
lwrist -16.1243
lhand -8.78531 -32.1787
lfingers 7.12502
lthumb 17.1531 -2.91583
rfemur -25.4294 24.2349 18.8213
rtibia 18.7995
rfoot -15.6424 -27.3079
rtoes -3.75394
lfemur 9.87925 -22.8803 -26.3967
ltibia 17.6015
lfoot -23.1748 5.42296
ltoes -32.7157
2872
root 9.76848 15.2607 -34.5833 362.557 8.93245 -1.8616
lowerback 6.96035 0.449186 -6.6485
upperback -2.61852 -0.358322 -5.23616
thorax -6.68329 -0.011675 -1.73381
lowerneck -6.90537 1.80064 -0.838841
upperneck 42.9542 8.21436 -10.8504
head 17.6338 1.9065 -3.56811
rclavicle 3.45637e-014 -1.59028e-014
rhumerus -47.0237 2.29485 -82.7334
rradius 41.633
rwrist 13.23
rhand 0.175812 -47.9293
rfingers 7.12502
rthumb 25.7588 -436.206
lclavicle 3.45637e-014 -1.59028e-014
lhumerus -39.9475 0.831171 72.809
lradius 33.3808
lwrist -16.1086
lhand -8.85631 -32.1321
lfingers 7.12502
lthumb 17.0848 -2.8633
rfemur -25.1626 24.5196 19.0258
rtibia 18.6847
rfoot -14.326 -27.3827
rtoes -0.40437
lfemur 10.243 -22.981 -26.1789
ltibia 17.4827
lfoot -22.8488 4.60455
ltoes -30.4064
2873
root 9.73921 15.2751 -34.498 362.569 9.30456 -2.10793
lowerback 7.35088 0.422504 -6.36499
upperback -2.73937 -0.414546 -5.19064
thorax -7.03664 -0.0430294 -1.84456
lowerneck -6.95603 1.76426 -0.944877
upperneck 43.282 8.16407 -10.6387
head 17.8207 1.8848 -3.47941
rclavicle 1.44367e-014 -6.04305e-014
rhumerus -47.1403 2.25037 -82.8195
rradius 41.5905
rwrist 13.2138
rhand 0.526112 -48.3317
rfingers 7.12502
rthumb 26.0942 -436.559
lclavicle 1.44367e-014 -6.04305e-014
lhumerus -39.8481 0.933744 72.5422
lradius 33.3273
lwrist -16.1731
lhand -8.60015 -31.8489
lfingers 7.12502
lthumb 17.3313 -2.60159
rfemur -24.8899 24.3757 19.548
rtibia 18.611
rfoot -12.9719 -27.287
rtoes 0.935638
lfemur 10.4188 -22.9677 -25.686
ltibia 17.4851
lfoot -22.6669 4.20705
ltoes -30.8855
2874
root 9.71105 15.2897 -34.4131 362.601 9.69835 -2.25235
lowerback 7.33667 0.469953 -6.4244
upperback -2.62314 -0.337369 -5.05856
thorax -6.90321 -0.00269465 -1.67823
lowerneck -7.06078 1.59958 -1.0013
upperneck 43.4358 7.94815 -10.6062
head 17.9166 1.78826 -3.49811
rclavicle -2.75814e-014 1.90833e-014
rhumerus -46.9446 2.08761 -82.641
rradius 41.4017
rwrist 13.2316
rhand 0.340355 -48.4233
rfingers 7.12502
rthumb 25.9163 -436.677
lclavicle -2.75814e-014 1.90833e-014
lhumerus -39.3642 1.26493 72.4482
lradius 33.1361
lwrist -16.4945
lhand -8.67002 -31.7918
lfingers 7.12502
lthumb 17.2641 -2.53866
rfemur -24.5388 24.1007 20.0172
rtibia 18.5234
rfoot -11.868 -27.6175
rtoes 0.412569
lfemur 10.5079 -22.8167 -25.2672
ltibia 17.6536
lfoot -22.4707 3.96595
ltoes -31.569
2875
root 9.68074 15.302 -34.336 362.744 10.2535 -2.30428
lowerback 7.53021 0.390349 -6.35086
upperback -2.65789 -0.458501 -5.06036
thorax -7.05012 -0.0620769 -1.70838
lowerneck -6.99494 1.54501 -0.99375
upperneck 43.5203 7.84882 -10.535
head 17.9343 1.76014 -3.48676
rclavicle 7.55382e-015 -3.18055e-015
rhumerus -46.7059 1.94834 -82.6674
rradius 40.9708
rwrist 13.3227
rhand 0.0355675 -48.3506
rfingers 7.12502
rthumb 25.6244 -436.646
lclavicle 7.55382e-015 -3.18055e-015
lhumerus -39.0402 1.66921 72.147
lradius 32.9242
lwrist -16.8497
lhand -9.18761 -31.8789
lfingers 7.12502
lthumb 16.7658 -2.58276
rfemur -24.3099 23.9872 20.2449
rtibia 18.4264
rfoot -11.1864 -28.593
rtoes 0.495742
lfemur 10.3649 -22.7203 -24.7842
ltibia 17.9185
lfoot -22.2526 2.93495
ltoes -28.7037
2876
root 9.65409 15.3132 -34.2519 362.906 10.6979 -2.3466
lowerback 7.4572 0.333533 -6.31083
upperback -2.63225 -0.518353 -5.03557
thorax -6.97889 -0.0937319 -1.69463
lowerneck -6.86549 1.5049 -1.04399
upperneck 43.5888 7.74488 -10.3877
head 17.9156 1.73222 -3.42696
rclavicle -1.3418e-014 3.18055e-014
rhumerus -46.4253 1.88506 -82.6471
rradius 40.5821
rwrist 13.4222
rhand 0.212603 -48.3388
rfingers 7.12502
rthumb 25.794 -436.61
lclavicle -1.3418e-014 3.18055e-014
lhumerus -38.7285 1.949 71.976
lradius 32.8049
lwrist -17.0305
lhand -9.55916 -31.5698
lfingers 7.12502
lthumb 16.4081 -2.24375
rfemur -24.122 23.698 20.508
rtibia 18.4475
rfoot -10.8448 -29.0891
rtoes 1.56018
lfemur 10.2704 -22.6045 -24.3878
ltibia 18.1195
lfoot -21.833 2.41659
ltoes -27.9875
2877
root 9.63183 15.3228 -34.1617 362.999 10.9828 -2.37203
lowerback 7.2242 0.356083 -6.35014
upperback -2.51711 -0.455076 -4.98265
thorax -6.72114 -0.0652598 -1.61932
lowerneck -6.78139 1.43024 -1.13403
upperneck 43.6819 7.58016 -10.1882
head 17.9129 1.67774 -3.34557
rclavicle -1.92821e-014 6.36111e-015
rhumerus -46.206 1.8155 -82.5523
rradius 40.3737
rwrist 13.4047
rhand 0.1881 -48.0106
rfingers 7.12502
rthumb 25.7705 -436.285
lclavicle -1.92821e-014 6.36111e-015
lhumerus -38.3762 2.0447 71.9398
lradius 32.8103
lwrist -17.1197
lhand -9.76032 -30.8717
lfingers 7.12502
lthumb 16.2144 -1.52974
rfemur -23.9069 23.3507 20.7978
rtibia 18.5607
rfoot -10.4798 -29.1247
rtoes 1.53164
lfemur 10.3404 -22.5781 -24.179
ltibia 18.2341
lfoot -21.2809 2.2155
ltoes -28.1684
2878
root 9.60927 15.3315 -34.0745 363.04 11.1851 -2.34812
lowerback 7.55464 0.342707 -6.19999
upperback -2.6262 -0.505503 -5.06608
thorax -7.02951 -0.0920059 -1.7915
lowerneck -6.83894 1.43464 -1.15853
upperneck 43.9232 7.55651 -9.98444
head 18.0587 1.68138 -3.26394
rclavicle -9.93923e-016 9.54166e-015
rhumerus -46.258 1.71548 -82.6388
rradius 40.25
rwrist 13.6154
rhand 0.637897 -48.3954
rfingers 7.12502
rthumb 26.2012 -436.607
lclavicle -9.93923e-016 9.54166e-015
lhumerus -38.3154 2.25123 71.6215
lradius 32.8779
lwrist -17.2909
lhand -9.85621 -31.3209
lfingers 7.12502
lthumb 16.1221 -1.97146
rfemur -23.6682 23.1451 21.0071
rtibia 18.6693
rfoot -9.47074 -29.1812
rtoes 0.0510667
lfemur 10.4755 -22.5757 -24.0667
ltibia 18.3266
lfoot -20.6662 1.59412
ltoes -25.8578
2879
root 9.58458 15.3441 -33.9839 363.174 11.3423 -2.30173
lowerback 7.42014 0.403367 -6.32265
upperback -2.5755 -0.418003 -5.05377
thorax -6.89853 -0.0460135 -1.71895
lowerneck -6.80739 1.34644 -1.16276
upperneck 43.9848 7.43314 -9.98028
head 18.0761 1.63357 -3.2846
rclavicle -4.96962e-016 -1.27222e-014
rhumerus -46.0909 1.41483 -82.4495
rradius 40.1415
rwrist 14.0266
rhand 1.48715 -49.1875
rfingers 7.12502
rthumb 27.014 -437.276
lclavicle -4.96962e-016 -1.27222e-014
lhumerus -37.9555 2.54954 71.5157
lradius 32.8582
lwrist -17.5204
lhand -9.9112 -31.3412
lfingers 7.12502
lthumb 16.0692 -1.98751
rfemur -23.4758 22.8921 21.1888
rtibia 18.7095
rfoot -8.35715 -28.9967
rtoes -0.0497177
lfemur 10.4598 -22.3014 -23.8798
ltibia 18.4844
lfoot -20.0248 1.32671
ltoes -26.1616
